<?xml version="1.0" standalone="no"?><!DOCTYPE svg PUBLIC "-//W3C//DTD SVG 1.1//EN" "http://www.w3.org/Graphics/SVG/1.1/DTD/svg11.dtd"><svg t="1765392817232" class="icon" viewBox="0 0 1024 1024" version="1.1" xmlns="http://www.w3.org/2000/svg" p-id="25558" xmlns:xlink="http://www.w3.org/1999/xlink" width="256" height="256"><path d="M319.59 548.424l147.968 147.968a822.374 822.374 0 0 1-432.2 307.23l-32.778 9.77 9.77-32.113A839.035 839.035 0 0 1 319.6 548.413z" fill="#CF5A1A" p-id="25559"></path><path d="M408.198 205.534l160.948 6.531L390.002 404.17 133.94 312.676a366.838 366.838 0 0 1 274.258-107.142z m418.133 422.869l-6.154-160.18L609.1 679.297l46.804 95.289 62.908 128.074A367.964 367.964 0 0 0 826.324 628.41z" fill="#FF7A45" p-id="25560"></path><path d="M563.404 212.478L384.268 404.576l-110.784-39.578 3.352-6.466a734.822 734.822 0 0 1 105.267-152.853c6.77-0.094 13.562-0.007 20.353 0.268l160.948 6.531z m254.528 248.373l6.133 160.188c0.145 3.591 0.232 7.183 0.26 10.774l0.008 2.295a733.942 733.942 0 0 1-155.22 106.997l-22.585 11.607-39.672-80.756 211.09-211.09z" fill="#CF5A1A" p-id="25561"></path><path d="M996.757 23.602c46.479 273.318-89.17 545.31-335.45 672.625l-328.29 169.716-178.6-178.6 170.65-328.688C452.563 113.077 723.882-22.261 996.757 23.602z" fill="#FF7A45" p-id="25562"></path><path d="M764.524 630.068L391.95 257.494A638.126 638.126 0 0 1 721.384 36.629L985.266 300.51a637.399 637.399 0 0 1-220.742 329.557z" fill="#FFBB96" p-id="25563"></path><path d="M635.262 212.406A102.4 102.4 0 1 0 780.077 357.22a102.4 102.4 0 1 0-144.815-144.815z" fill="#FF7A45" p-id="25564"></path></svg>